<svg xmlns="http://www.w3.org/2000/svg" viewBox="0 0 251 345.8"><path d="M351.5,451.9l-5.5,3.5-1-1.1a4.2,4.2,0,0,0-4.1-1.8,3,3,0,0,0-1.7,5.5c1.1.7,2.4,1.3,3.6,1.9s3.7,1.7,5.4,2.7c4.4,2.6,6.1,6.3,5.3,11.3s-3.8,6.9-8.6,7.7-11.5-.2-15.4-5.5l-1-1.6,5.9-3.5a14.7,14.7,0,0,0,1,1.3,7.2,7.2,0,0,0,7.8,2.8,3.3,3.3,0,0,0,1.2-6.2c-1.6-.9-3.3-1.6-4.9-2.4a42.3,42.3,0,0,1-4.2-2.2,10.1,10.1,0,0,1-4.3-11.4c1.1-3.9,4.6-6.5,9.1-6.9S349.5,447.7,351.5,451.9Z" transform="translate(-117 -136.2)" style="fill:#f7df1e"/><path d="M303.2,475.2l5.8-3.5,1.6,2.1a4.3,4.3,0,0,0,4.8,1.3c1.6-.6,2-2,2-3.6,0-7.7.1-15.4,0-23.1,0-1.6.4-2.2,2.1-2.1a9.7,9.7,0,0,0,3.4,0c1.7-.2,2,.6,2,2.1-.1,7.3,0,14.6-.1,21.9a16.1,16.1,0,0,1-.6,4.9,8.5,8.5,0,0,1-6.2,6.2c-5.8,1.7-11.7-.4-14.3-5.2Z" transform="translate(-117 -136.2)" style="fill:#f7df1e"/><rect width="251" height="84" style="fill:#f7df1e"/></svg>