<svg xmlns="http://www.w3.org/2000/svg" viewBox="0 0 50.4 36"><path d="M148.5,160.8l-5.5,3.5-1-1.1a4.3,4.3,0,0,0-4.1-1.8,3,3,0,0,0-1.7,5.5c1.1.7,2.4,1.3,3.6,1.9s3.7,1.7,5.4,2.7c4.4,2.6,6.1,6.3,5.3,11.3s-3.8,6.9-8.6,7.7-11.4-.2-15.3-5.5l-1-1.6,5.8-3.5,1,1.3a7.2,7.2,0,0,0,7.8,2.8,3.3,3.3,0,0,0,1.2-6.2c-1.6-.9-3.3-1.6-4.9-2.4a42.3,42.3,0,0,1-4.2-2.2,10,10,0,0,1-4.2-11.4c1.1-3.9,4.5-6.5,9-6.9S146.5,156.6,148.5,160.8Z" transform="translate(-100.3 -154.9)" style="fill:#f7df1e"/><path d="M100.3,184.1l5.8-3.5,1.6,2.1a4.2,4.2,0,0,0,4.8,1.3c1.6-.6,2-2,2-3.6,0-7.7.1-15.4,0-23.1,0-1.6.4-2.2,2.1-2.1a9.7,9.7,0,0,0,3.4,0c1.7-.2,2,.6,2,2.1-.1,7.3,0,14.6-.1,21.9a19.9,19.9,0,0,1-.6,4.9,8.5,8.5,0,0,1-6.2,6.2c-5.8,1.7-11.7-.4-14.3-5.2Z" transform="translate(-100.3 -154.9)" style="fill:#f7df1e"/></svg>