<svg xmlns="http://www.w3.org/2000/svg" viewBox="0 0 403.2 108"><polygon points="403.2 36 397.6 36 393.9 22.4 386.1 36 379.8 36 391.9 14.9 390 7.6 373.6 36 367.3 36 388.1 0 393.6 0 396 8.9 401.7 8.9 397.8 15.7 403.2 36" style="fill:#070707"/><path d="M372.2,322.7h-5.3v-5.3a1.4,1.4,0,0,0-1.4-1.4h-1.7a1.4,1.4,0,0,0-1.4,1.4v5.3h-5.3a1.5,1.5,0,0,0-1.5,1.5v1.6a1.5,1.5,0,0,0,1.5,1.4h5.3v5.4a1.4,1.4,0,0,0,1.4,1.4h1.7a1.4,1.4,0,0,0,1.4-1.4v-5.4h5.3a1.4,1.4,0,0,0,1.4-1.4v-1.6A1.5,1.5,0,0,0,372.2,322.7Z" transform="translate(-123.4 -271)"/><path d="M303.6,319.4l-23.1,23-.7.6-.6-.6-10.6-10.5c-.6-.6-.7-.9-.1-1.5l23.1-23c.5-.5.8-.6,1.4,0l10.6,10.5C304.1,318.5,304.1,318.8,303.6,319.4Z" transform="translate(-123.4 -271)" style="fill:#6ac5e6"/><path d="M316.8,332.3l-10.3,10.3c-.7.7-.9.2-1.3-.2a15.6,15.6,0,0,1-4.2-10.6,16.5,16.5,0,0,1,4.1-10.8c.5-.6.9-.6,1.5,0l10.2,10.2C317.3,331.6,317.3,331.9,316.8,332.3Z" transform="translate(-123.4 -271)" style="fill:#f35747"/><path d="M228.2,322.7h-5.3v-5.3a1.4,1.4,0,0,0-1.4-1.4h-1.7a1.4,1.4,0,0,0-1.4,1.4v5.3h-5.3a1.5,1.5,0,0,0-1.5,1.5v1.6a1.5,1.5,0,0,0,1.5,1.4h5.3v5.4a1.4,1.4,0,0,0,1.4,1.4h1.7a1.4,1.4,0,0,0,1.4-1.4v-5.4h5.3a1.4,1.4,0,0,0,1.4-1.4v-1.6A1.5,1.5,0,0,0,228.2,322.7Z" transform="translate(-123.4 -271)"/><path d="M171.7,313l-5.5,3.5-1-1.2a4.3,4.3,0,0,0-4.1-1.8c-1.4.2-2.4.7-2.8,2.1a2.7,2.7,0,0,0,1.1,3.4,24.7,24.7,0,0,0,3.6,1.9c1.8.9,3.7,1.7,5.4,2.7,4.4,2.6,6.1,6.4,5.3,11.3s-3.8,7-8.6,7.7-11.5-.1-15.4-5.5l-1-1.6,5.9-3.4a14.7,14.7,0,0,1,1,1.3,7.4,7.4,0,0,0,7.8,2.8,3.4,3.4,0,0,0,3-2.6,3.3,3.3,0,0,0-1.8-3.7l-4.9-2.3c-1.4-.7-2.9-1.4-4.2-2.2a10.2,10.2,0,0,1-4.3-11.4c1.1-3.9,4.6-6.6,9.1-6.9S169.6,308.7,171.7,313Z" transform="translate(-123.4 -271)" style="fill:#f7df1e"/><path d="M123.4,336.2l5.8-3.5c.6.8,1,1.5,1.6,2.2a4.5,4.5,0,0,0,4.8,1.2c1.6-.6,2-2,2-3.5,0-7.7.1-15.4,0-23.1,0-1.6.4-2.3,2.1-2.1a18.2,18.2,0,0,0,3.3,0c1.7-.2,2.1.5,2.1,2.1-.1,7.3,0,14.6-.1,21.9a19.1,19.1,0,0,1-.6,4.8,8.5,8.5,0,0,1-6.2,6.2c-5.8,1.7-11.7-.4-14.3-5.1A5.8,5.8,0,0,1,123.4,336.2Z" transform="translate(-123.4 -271)" style="fill:#f7df1e"/><rect x="434.4" y="311.5" width="4.5" height="18" rx="1.4" transform="translate(-7.3 486.1) rotate(-90)" style="fill:#070707"/><rect x="434.4" y="320.5" width="4.5" height="18" rx="1.4" transform="translate(-16.3 495.1) rotate(-90)" style="fill:#070707"/><path d="M508.7,370v9l11-15.6Z" transform="translate(-123.4 -271)" style="fill:#cc6116"/><path d="M508.7,343l11,18.3-11,6.6-11.1-6.6" transform="translate(-123.4 -271)" style="fill:#e3761b"/><path d="M508.7,343v13.3l-11.1,5m0,2.1,11.1,6.6v9" transform="translate(-123.4 -271)" style="fill:#f5841b"/><path d="M508.7,356.3v11.6l11-6.6" transform="translate(-123.4 -271)" style="fill:#763d16"/><path d="M497.6,361.3l11.1-5v11.6" transform="translate(-123.4 -271)" style="fill:#cc6116"/></svg>