<svg xmlns="http://www.w3.org/2000/svg" xmlns:xlink="http://www.w3.org/1999/xlink" viewBox="0 0 79.8 36"><defs><linearGradient id="a" x1="294.52" y1="292.44" x2="289.47" y2="302.74" gradientUnits="userSpaceOnUse"><stop offset="0" stop-color="#3f873f"/><stop offset="0.33" stop-color="#3f8b3d"/><stop offset="0.64" stop-color="#3e9637"/><stop offset="0.93" stop-color="#3da92e"/><stop offset="1" stop-color="#3dae2b"/></linearGradient><clipPath id="c" transform="translate(-260.1 -281.7)"><path d="M292.6,290a.9.9,0,0,0-.7,0l-5.6,3.3a.6.6,0,0,0-.3.6v6.4a.7.7,0,0,0,.3.6l5.6,3.2h.7l5.6-3.2a.7.7,0,0,0,.3-.6v-6.4a.6.6,0,0,0-.3-.6Z" style="fill:url(#a);clip-rule:evenodd"/></clipPath><linearGradient id="d" x1="291.4" y1="297.83" x2="305.57" y2="287.37" gradientUnits="userSpaceOnUse"><stop offset="0.14" stop-color="#3f873f"/><stop offset="0.4" stop-color="#529f44"/><stop offset="0.71" stop-color="#63b649"/><stop offset="0.91" stop-color="#6abf4b"/></linearGradient><linearGradient id="e" x1="25.69" y1="7.14" x2="38.61" y2="7.14" gradientUnits="userSpaceOnUse"><stop offset="0.09" stop-color="#6abf4b"/><stop offset="0.29" stop-color="#63b649"/><stop offset="0.6" stop-color="#529f44"/><stop offset="0.86" stop-color="#3f873f"/></linearGradient><linearGradient id="f" x1="285.79" y1="297.08" x2="298.71" y2="297.08" xlink:href="#e"/><linearGradient id="g" x1="25.69" y1="19.02" x2="38.61" y2="19.02" xlink:href="#e"/><linearGradient id="h" x1="285.79" y1="302.43" x2="298.71" y2="302.43" xlink:href="#e"/><linearGradient id="i" x1="300.59" y1="292.14" x2="292.63" y2="308.39" xlink:href="#a"/></defs><rect y="0.1" width="79.8" height="35.93" rx="1.1"/><path d="M299.6,317.7l-.6-.2-1.7-1c-.3-.2-.2-.2-.1-.3l.8-.3h.2l1.3.8h.2l5.3-3.1a.1.1,0,0,0,.1-.1v-6.1c0-.1-.1-.1-.1-.2l-5.3-3h-.2l-5.3,3c0,.1-.1.1-.1.2v6.1a.1.1,0,0,0,.1.1l1.5.9c.8.4,1.2-.1,1.2-.6v-6h1v6c0,1.1-.6,1.7-1.5,1.7a2.6,2.6,0,0,1-1.3-.3l-1.4-.8a1.2,1.2,0,0,1-.5-1v-6.1a1.2,1.2,0,0,1,.5-1l5.3-3a1.3,1.3,0,0,1,1.2,0l5.3,3a1.2,1.2,0,0,1,.5,1v6.1a1.2,1.2,0,0,1-.5,1l-5.3,3Z" transform="translate(-260.1 -281.7)" style="fill:#679e63"/><path d="M301.2,313.5c-2.3,0-2.8-1.1-2.8-2a.2.2,0,0,1,.2-.2h.7a.3.3,0,0,1,.1.2c.1.7.4,1,1.8,1s1.6-.2,1.6-.8-.1-.6-1.8-.8-2.4-.4-2.4-1.6.9-1.7,2.4-1.7,2.6.6,2.7,1.8,0,.1-.1.2h-.8a.1.1,0,0,1-.1-.1c-.2-.7-.6-1-1.7-1s-1.3.4-1.3.8.1.5,1.8.7,2.4.5,2.4,1.6S302.9,313.5,301.2,313.5Z" transform="translate(-260.1 -281.7)" style="fill:#679e63"/><path d="M308.9,307a1.1,1.1,0,0,1-1,1.1,1.1,1.1,0,0,1-1.1-1.1,1.1,1.1,0,0,1,1.1-1A1.1,1.1,0,0,1,308.9,307Zm-1.9,0a.9.9,0,0,0,.8.9.9.9,0,0,0,.9-.9.9.9,0,0,0-.9-.8A.9.9,0,0,0,307,307Zm.5-.5h.4c.1,0,.4,0,.4.3s-.2.2-.3.3.2.1.2.2v.3h-.2c-.1,0-.1-.3-.1-.3s0-.1-.1-.1h-.2v.4h-.2Zm.2.5h.2c.1,0,.1-.1.1-.2a.1.1,0,0,0-.1-.1h-.2Z" transform="translate(-260.1 -281.7)" style="fill:#679e63"/><path d="M283.2,293.7a.5.5,0,0,0-.4-.5l-5.6-3.3h-.6l-5.7,3.3a.5.5,0,0,0-.3.5v8.8a.2.2,0,0,0,.2.2.2.2,0,0,0,.3,0l3.4-1.9a.6.6,0,0,0,.3-.6v-4a.6.6,0,0,1,.3-.6l1.5-.8h.6l1.5.8a.6.6,0,0,1,.3.6v4a.6.6,0,0,0,.3.6l3.4,1.9a.2.2,0,0,0,.3,0,.2.2,0,0,0,.2-.2Z" transform="translate(-260.1 -281.7)" style="fill:#fff;fill-rule:evenodd"/><path d="M310.2,281.8a.2.2,0,0,0-.3,0c-.1,0-.2.2-.2.3v8.6c0,.1,0,.2-.1.2h-.2l-1.5-.8a.6.6,0,0,0-.6,0l-5.6,3.2a.7.7,0,0,0-.4.6v6.5a.5.5,0,0,0,.4.6l5.6,3.2c.2.2.4.2.7,0l5.6-3.2a.6.6,0,0,0,.3-.6V284.2a.9.9,0,0,0-.3-.6Zm-.5,16.5h-.1l-1.9,1.1c-.1.1-.1.1-.2,0l-1.9-1.1h-.1v-2.2c0-.1,0-.2.1-.2l1.9-1.1h.2l1.9,1.1c.1,0,.1.1.1.2Z" transform="translate(-260.1 -281.7)" style="fill:#fff;fill-rule:evenodd"/><path d="M328.9,296a.7.7,0,0,0,.4-.6v-1.6a.7.7,0,0,0-.4-.5l-5.6-3.3a.6.6,0,0,0-.6,0l-5.7,3.3a.5.5,0,0,0-.3.5v6.5a.5.5,0,0,0,.4.6l5.5,3.2h.7l3.4-1.9c.1,0,.1-.2.2-.3l-.2-.3-5.7-3.2a.4.4,0,0,1-.1-.3v-2c0-.2,0-.3.1-.3l1.8-1a.2.2,0,0,1,.3,0l1.8,1c.1,0,.2.1.2.3v1.6a.4.4,0,0,0,.1.3h.4Z" transform="translate(-260.1 -281.7)" style="fill:#fff;fill-rule:evenodd"/><path d="M322.9,295.7h.2l1,.6h.1v1.3a.1.1,0,0,1-.1.1l-1,.6h-.2l-1.1-.6h0v-1.3h0Z" transform="translate(-260.1 -281.7)" style="fill:#679e63;fill-rule:evenodd"/><path d="M292.6,290a.9.9,0,0,0-.7,0l-5.6,3.3a.6.6,0,0,0-.3.6v6.4a.7.7,0,0,0,.3.6l5.6,3.2h.7l5.6-3.2a.7.7,0,0,0,.3-.6v-6.4a.6.6,0,0,0-.3-.6Z" transform="translate(-260.1 -281.7)" style="fill-rule:evenodd;fill:url(#a)"/><g style="clip-path:url(#c)"><path d="M291.9,290l-5.6,3.3a.7.7,0,0,0-.4.6v6.4a.5.5,0,0,0,.2.4l6.3-10.7C292.2,289.9,292.1,290,291.9,290Z" transform="translate(-260.1 -281.7)" style="fill:none"/><path d="M292.4,304.2h.2l5.6-3.2a.7.7,0,0,0,.3-.6v-6.4c0-.2,0-.4-.2-.5Z" transform="translate(-260.1 -281.7)" style="fill:none"/><path d="M298.2,293.3l-5.6-3.3h-.2l-6.3,10.7.2.2,5.6,3.2h.5l5.9-10.8Z" transform="translate(-260.1 -281.7)" style="fill:url(#d)"/><path d="M298.5,300.3v-6.4a.6.6,0,0,0-.3-.6l-5.6-3.3h-.2l6.1,10.5Z" transform="translate(-260.1 -281.7)" style="fill:none"/><path d="M286.3,293.3a.7.7,0,0,0-.4.6v6.4a.8.8,0,0,0,.4.6l5.6,3.2h.4l-6-11Z" transform="translate(-260.1 -281.7)" style="fill:none"/><polygon points="31.6 7.1 31.5 7.2 31.7 7.2 31.6 7.1" style="fill:url(#e)"/><path d="M298.2,300.9a.5.5,0,0,0,.3-.4L292.4,290c-.2-.1-.4,0-.5,0l-5.6,3.2,6,11h.3Z" transform="translate(-260.1 -281.7)" style="fill:url(#f)"/><polygon points="38.6 19 38.6 19 38.6 19.1 38.6 19" style="fill:url(#g)"/><path d="M298.2,300.9l-5.6,3.2h-.3l.2.2,6.2-3.6h0l-.2-.2A.5.5,0,0,1,298.2,300.9Z" transform="translate(-260.1 -281.7)" style="fill:url(#h)"/><path d="M298.2,300.9l-5.6,3.2h-.3l.2.2,6.2-3.6h0l-.2-.2A.5.5,0,0,1,298.2,300.9Z" transform="translate(-260.1 -281.7)" style="fill:url(#i)"/></g></svg>