<svg xmlns="http://www.w3.org/2000/svg"  width="100" height="100" viewBox="0 0 36 26.4"><path d="M314,417l-16.9,16.9-.5.4-.5-.4-7.8-7.8c-.4-.4-.4-.6,0-1l16.9-16.9a.7.7,0,0,1,1.1,0c2.5,2.6,5.1,5.1,7.7,7.7A.7.7,0,0,1,314,417Z" transform="translate(-288 -407.9)" style="fill:#6ac5e6"/><path d="M323.8,426.5l-7.7,7.5c-.4.5-.6.2-.8-.1a11.6,11.6,0,0,1-3.2-7.8,12,12,0,0,1,3.1-7.9c.3-.5.6-.5,1-.1,2.5,2.6,5,5.1,7.6,7.5C324.1,426,324.1,426.2,323.8,426.5Z" transform="translate(-288 -407.9)" style="fill:#f35747"/></svg>